<?xml version="1.0" standalone="no"?>
<!DOCTYPE svg PUBLIC "-//W3C//DTD SVG 20010904//EN"
 "http://www.w3.org/TR/2001/REC-SVG-20010904/DTD/svg10.dtd">
<svg version="1.0" xmlns="http://www.w3.org/2000/svg"
 width="150.000000pt" height="150.000000pt" viewBox="0 0 238.000000 238.000000"
 preserveAspectRatio="xMidYMid meet">
<metadata>
Created by potrace 1.14, written by Peter Selinger 2001-2017
</metadata>
<g transform="translate(0.000000,238.000000) scale(0.100000,-0.100000)"
fill="#666362" stroke="none">
<path d="M1010 2345 c-446 -84 -795 -434 -900 -900 -30 -130 -32 -358 -6 -483
93 -441 395 -780 798 -896 252 -72 527 -49 764 64 534 257 784 885 583 1471
-120 350 -419 630 -774 724 -125 34 -345 43 -465 20z m308 -55 c457 -58 821
-403 916 -870 47 -235 17 -491 -83 -705 -225 -481 -740 -723 -1234 -580 -202
58 -370 170 -510 338 -172 207 -257 446 -257 722 0 323 116 596 348 817 225
214 523 315 820 278z"/>
<path d="M1070 2050 c-12 -8 -12 -14 3 -45 18 -38 42 -54 59 -37 6 6 5 19 -5
39 -21 40 -39 54 -57 43z"/>
<path d="M1280 2009 c-15 -28 -18 -45 -11 -52 15 -15 40 -1 52 29 24 64 -11
83 -41 23z"/>
<path d="M1034 1869 c-12 -20 17 -34 83 -39 62 -5 67 -7 76 -33 16 -48 5 -57
-68 -57 -57 0 -65 -2 -65 -19 0 -19 39 -31 108 -31 33 0 33 0 30 -42 l-3 -43
-62 0 c-66 0 -101 -17 -73 -35 8 -5 38 -10 67 -10 81 0 83 -2 83 -80 0 -71 10
-91 36 -69 11 9 14 29 12 78 l-3 66 63 3 c46 2 65 7 69 18 9 23 -15 35 -67 33
-73 -1 -71 -2 -68 39 3 37 3 37 53 42 36 4 50 9 50 20 0 11 -13 16 -45 18 -56
4 -70 16 -70 58 l0 34 75 0 c59 0 77 3 82 16 3 8 2 19 -3 23 -14 13 -352 22
-360 10z"/>
<path d="M461 1776 c-6 -7 -10 -24 -9 -37 2 -18 -2 -25 -19 -27 -20 -3 -23 1
-23 28 0 18 -6 33 -15 37 -22 8 -25 3 -31 -58 -4 -30 -15 -69 -25 -87 -24 -42
-24 -52 -1 -52 22 0 47 25 56 58 5 16 15 22 35 22 26 0 29 -4 35 -46 10 -79 9
-81 -36 -96 -59 -18 -58 -43 0 -42 l44 1 -4 -56 c-3 -54 -2 -56 22 -56 24 0
25 4 30 65 5 58 7 65 30 70 37 9 34 43 -5 50 -29 5 -30 7 -30 55 0 50 0 50 31
47 32 -3 61 19 49 38 -3 5 -23 10 -45 10 -40 0 -50 11 -50 55 0 27 -24 40 -39
21z"/>
<path d="M732 1778 c-7 -7 -12 -25 -12 -42 0 -16 -10 -49 -21 -74 -14 -28 -18
-47 -12 -53 14 -14 38 -2 54 27 13 25 17 26 89 22 71 -3 75 -2 78 20 3 20 -1
22 -36 22 -22 0 -54 3 -71 6 -26 5 -31 11 -31 34 0 34 -21 55 -38 38z"/>
<path d="M1787 1783 c-2 -4 -8 -29 -11 -55 -11 -74 -71 -182 -144 -260 -46
-48 -62 -72 -55 -79 22 -22 75 14 139 95 l31 40 54 -47 c63 -56 160 -107 201
-107 24 0 29 4 26 21 -2 17 -14 25 -49 33 -53 14 -96 41 -160 104 l-47 44 24
59 c30 74 36 152 12 157 -9 2 -18 -1 -21 -5z"/>
<path d="M817 1523 c-3 -5 -8 -23 -12 -40 -8 -38 -22 -50 -38 -34 -6 6 -19 11
-29 11 -26 0 -23 -34 5 -53 l22 -15 -27 -29 c-22 -23 -25 -32 -16 -41 17 -17
22 -15 59 15 25 21 43 28 78 28 39 0 46 3 46 20 0 15 -8 21 -32 23 -36 4 -38
10 -24 60 6 18 7 40 4 48 -5 15 -29 19 -36 7z"/>
<path d="M1324 1213 c-75 -83 -79 -89 -84 -142 l-5 -56 -226 -3 -227 -2 -81
-89 -81 -89 2 -263 3 -263 390 -2 390 -1 88 87 87 86 0 82 0 82 178 0 177 0
83 83 82 82 0 248 0 247 -348 0 -349 0 -79 -87z m686 30 c0 -4 -21 -29 -47
-55 l-47 -48 -293 0 c-161 0 -293 3 -293 7 0 4 21 29 47 55 l47 48 293 0 c161
0 293 -3 293 -7z m47 -233 l-2 -179 -45 -46 c-24 -25 -48 -45 -52 -45 -4 0 -8
81 -8 180 l0 181 46 49 c26 27 50 47 54 45 5 -3 8 -86 7 -185z m-159 -122 l-3
-203 -155 0 -155 0 -3 163 -2 162 -145 0 -145 0 0 40 0 40 305 0 305 0 -2
-202z m-418 70 c0 -7 -21 -34 -47 -60 l-47 -48 -333 0 c-274 0 -333 2 -333 14
0 7 22 34 50 60 l49 46 331 0 c252 0 330 -3 330 -12z m50 -255 l0 -207 -47
-48 c-26 -26 -51 -48 -55 -48 -4 0 -8 92 -8 205 l0 206 46 49 c26 28 51 50 55
50 5 0 9 -93 9 -207z m-156 91 c9 -23 7 -417 -2 -432 -7 -9 -84 -12 -353 -10
l-344 3 -3 215 c-1 118 0 220 2 227 4 10 80 13 350 13 304 0 345 -2 350 -16z"/>
</g>
</svg>
